<svg>
    <symbol id='icon-facebook' viewBox="0 0 10 18" fill="none" xmlns="http://www.w3.org/2000/svg">
        <path
            d="M9.5 3H6.5C5.94772 3 5.5 3.44772 5.5 4V7H9.5C9.61374 6.99748 9.7216 7.05039 9.78923 7.14188C9.85685 7.23336 9.87578 7.35201 9.84 7.46L9.1 9.66C9.03181 9.86192 8.84312 9.99842 8.63 10H5.5V17.5C5.5 17.7761 5.27614 18 5 18H2.5C2.22386 18 2 17.7761 2 17.5V10H0.5C0.223858 10 0 9.77614 0 9.5V7.5C0 7.22386 0.223858 7 0.5 7H2V4C2 1.79086 3.79086 0 6 0H9.5C9.77614 0 10 0.223858 10 0.5V2.5C10 2.77614 9.77614 3 9.5 3Z"
            fill="currentColor" />
    </symbol>

    <symbol id='icon-instagram' viewBox="0 0 18 18" fill="none" xmlns="http://www.w3.org/2000/svg">
        <path fill-rule="evenodd" clip-rule="evenodd"
            d="M13 0H5C2.23858 0 0 2.23858 0 5V13C0 15.7614 2.23858 18 5 18H13C15.7614 18 18 15.7614 18 13V5C18 2.23858 15.7614 0 13 0ZM16.25 13C16.2445 14.7926 14.7926 16.2445 13 16.25H5C3.20735 16.2445 1.75549 14.7926 1.75 13V5C1.75549 3.20735 3.20735 1.75549 5 1.75H13C14.7926 1.75549 16.2445 3.20735 16.25 5V13ZM13.75 5.25C14.3023 5.25 14.75 4.80228 14.75 4.25C14.75 3.69772 14.3023 3.25 13.75 3.25C13.1977 3.25 12.75 3.69772 12.75 4.25C12.75 4.80228 13.1977 5.25 13.75 5.25ZM9 4.50001C6.51472 4.50001 4.5 6.51473 4.5 9.00001C4.5 11.4853 6.51472 13.5 9 13.5C11.4853 13.5 13.5 11.4853 13.5 9.00001C13.5027 7.80572 13.0294 6.65958 12.1849 5.81509C11.3404 4.9706 10.1943 4.49735 9 4.50001ZM6.25 9C6.25 10.5188 7.48122 11.75 9 11.75C10.5188 11.75 11.75 10.5188 11.75 9C11.75 7.48122 10.5188 6.25 9 6.25C7.48122 6.25 6.25 7.48122 6.25 9Z"
            fill="currentColor" />
    </symbol>

    <symbol id='icon-linkedin' viewBox="0 0 19 18" fill="none" xmlns="http://www.w3.org/2000/svg">
        <path fill-rule="evenodd" clip-rule="evenodd"
            d="M0 2.11765C0 0.948103 0.948103 0 2.11765 0C2.67928 0 3.21791 0.223109 3.61505 0.620245C4.01219 1.01738 4.23529 1.55601 4.23529 2.11765C4.23529 3.28719 3.28719 4.23529 2.11765 4.23529C0.948103 4.23529 0 3.28719 0 2.11765ZM18.5295 11.0223C18.566 8.72983 17.002 6.72095 14.7707 6.19406C13.2753 5.87207 11.7167 6.2943 10.5883 7.327V6.8823C10.5883 6.58991 10.3513 6.35288 10.0589 6.35288H7.41183C7.11945 6.35288 6.88242 6.58991 6.88242 6.8823V17.4705C6.88242 17.7629 7.11945 17.9999 7.41183 17.9999H10.0589C10.3513 17.9999 10.5883 17.7629 10.5883 17.4705V11.4988C10.5622 10.4354 11.3033 9.50677 12.346 9.29641C12.9668 9.18924 13.6031 9.36408 14.0821 9.77342C14.561 10.1828 14.8328 10.7841 14.8236 11.4141V17.4705C14.8236 17.7629 15.0606 17.9999 15.353 17.9999H18.0001C18.2925 17.9999 18.5295 17.7629 18.5295 17.4705V11.0223ZM4.23528 6.88229V17.4705C4.23528 17.7629 3.99825 17.9999 3.70587 17.9999H1.05881C0.76642 17.9999 0.529395 17.7629 0.529395 17.4705V6.88229C0.529395 6.58991 0.76642 6.35288 1.05881 6.35288H3.70587C3.99825 6.35288 4.23528 6.58991 4.23528 6.88229Z"
            fill="currentColor" />
    </symbol>

    <symbol id='icon-twitter' viewBox="0 0 20 17" fill="none" xmlns="http://www.w3.org/2000/svg">
        <path
            d="M19.9708 2.46378C19.4547 3.15213 18.8309 3.75258 18.1235 4.24195C18.1235 4.42177 18.1235 4.60158 18.1235 4.79139C18.1292 8.0568 16.8249 11.1879 14.5029 13.4828C12.181 15.7777 9.03567 17.0443 5.77211 16.9988C3.88538 17.0051 2.02281 16.5743 0.330301 15.7401C0.239042 15.7003 0.18018 15.61 0.180527 15.5103V15.4005C0.180527 15.257 0.296758 15.1407 0.440136 15.1407C2.29475 15.0796 4.0832 14.4366 5.55244 13.3026C3.87376 13.2688 2.36338 12.2744 1.66829 10.7453C1.63318 10.6617 1.64411 10.5659 1.69713 10.4925C1.75016 10.419 1.83761 10.3785 1.9279 10.3856C2.43809 10.4369 2.95337 10.3894 3.44561 10.2458C1.59249 9.86109 0.200074 8.32265 0.000797149 6.43969C-0.00628542 6.34936 0.0341943 6.26187 0.107613 6.20882C0.181031 6.15577 0.276775 6.14483 0.360256 6.17996C0.857554 6.39939 1.39439 6.51496 1.93788 6.51961C0.314106 5.45384 -0.387258 3.42672 0.230452 1.58469C0.294214 1.4057 0.447402 1.27347 0.633723 1.2366C0.820043 1.19972 1.01201 1.26365 1.13908 1.40487C3.33027 3.73695 6.34099 5.12662 9.53645 5.28088C9.4546 4.95427 9.41434 4.61862 9.41663 4.28191C9.44652 2.51636 10.5389 0.943567 12.1825 0.299861C13.826 -0.343846 15.6953 0.0689272 16.9153 1.34494C17.747 1.18651 18.551 0.907164 19.3018 0.515789C19.3568 0.481454 19.4265 0.481454 19.4815 0.515789C19.5158 0.57081 19.5158 0.640583 19.4815 0.695604C19.1178 1.52835 18.5035 2.2268 17.7241 2.69355C18.4066 2.6144 19.0771 2.45341 19.7211 2.21404C19.7754 2.17713 19.8466 2.17713 19.9009 2.21404C19.9463 2.23482 19.9802 2.27457 19.9937 2.32269C20.0072 2.37081 19.9988 2.42242 19.9708 2.46378Z"
            fill="currentColor" />
    </symbol>

    <symbol id="icon-search" viewBox="0 0 21 20" fill="none" xmlns="http://www.w3.org/2000/svg">
        <path fill-rule="evenodd" clip-rule="evenodd"
            d="M15.6431 13.4554L19.8645 17.4602C20.053 17.6589 20.0437 17.9631 19.8434 18.1511L19.1047 18.8519C19.0056 18.9467 18.8707 19 18.73 19C18.5893 19 18.4544 18.9467 18.3553 18.8519L14.1339 14.8471C14.0172 14.7362 13.9112 14.6156 13.8173 14.4867L13.0258 13.4855C11.7162 14.4776 10.0898 15.0178 8.41388 15.0173C4.96034 15.0287 1.95934 12.7686 1.18757 9.5751C0.415791 6.38161 2.07921 3.10699 5.19304 1.68991C8.30686 0.272842 12.0401 1.09151 14.1825 3.66125C16.3249 6.23099 16.3047 9.86596 14.1339 12.4142L15.1893 13.105C15.3541 13.2051 15.5063 13.3226 15.6431 13.4554ZM3.13727 8.00874C3.13727 10.7735 5.49976 13.0148 8.41405 13.0148C9.81354 13.0148 11.1557 12.4874 12.1453 11.5485C13.1349 10.6097 13.6908 9.33643 13.6908 8.00874C13.6908 5.24399 11.3283 3.00271 8.41405 3.00271C5.49976 3.00271 3.13727 5.24399 3.13727 8.00874Z"
            fill="currentColor" />
        <path
            d="M19.8645 17.4602L20.1365 17.2021L20.1297 17.195L20.1226 17.1882L19.8645 17.4602ZM15.6431 13.4554L15.3818 13.7245L15.385 13.7275L15.6431 13.4554ZM19.8434 18.1511L19.5868 17.8776L19.5853 17.879L19.8434 18.1511ZM19.1047 18.8519L18.8466 18.5799L18.8454 18.5809L19.1047 18.8519ZM18.3553 18.8519L18.6146 18.5809L18.6134 18.5799L18.3553 18.8519ZM14.1339 14.8471L13.8757 15.119L13.8758 15.1192L14.1339 14.8471ZM13.8173 14.4867L14.1205 14.2659L14.1161 14.2599L14.1115 14.2541L13.8173 14.4867ZM13.0258 13.4855L13.32 13.2529L13.0922 12.9647L12.7993 13.1865L13.0258 13.4855ZM8.41388 15.0173L8.41398 14.6423L8.41265 14.6423L8.41388 15.0173ZM1.18757 9.5751L0.82306 9.66319H0.82306L1.18757 9.5751ZM5.19304 1.68991L5.03771 1.3486L5.19304 1.68991ZM14.1825 3.66125L13.8944 3.90138H13.8944L14.1825 3.66125ZM14.1339 12.4142L13.8485 12.171L13.5725 12.4949L13.9285 12.7279L14.1339 12.4142ZM15.1893 13.105L14.9838 13.4189L14.9946 13.4255L15.1893 13.105ZM20.1226 17.1882L15.9012 13.1834L15.385 13.7275L19.6064 17.7323L20.1226 17.1882ZM20.1 18.4245C20.4512 18.095 20.4689 17.5524 20.1365 17.2021L19.5925 17.7184C19.6171 17.7444 19.6257 17.7727 19.625 17.7982C19.6242 17.8238 19.6138 17.8523 19.5868 17.8776L20.1 18.4245ZM19.3627 19.124L20.1015 18.4231L19.5853 17.879L18.8466 18.5799L19.3627 19.124ZM18.73 19.375C18.9645 19.375 19.193 19.2864 19.3639 19.1229L18.8454 18.5809C18.8182 18.607 18.7769 18.625 18.73 18.625V19.375ZM18.0961 19.1229C18.267 19.2864 18.4955 19.375 18.73 19.375V18.625C18.6831 18.625 18.6418 18.607 18.6146 18.5809L18.0961 19.1229ZM13.8758 15.1192L18.0973 19.124L18.6134 18.5799L14.392 14.575L13.8758 15.1192ZM13.5142 14.7074C13.6216 14.8549 13.7426 14.9927 13.8757 15.119L14.3921 14.5752C14.2917 14.4798 14.2008 14.3763 14.1205 14.2659L13.5142 14.7074ZM12.7316 13.718L13.5231 14.7192L14.1115 14.2541L13.32 13.2529L12.7316 13.718ZM8.41378 15.3923C10.1698 15.3928 11.876 14.8269 13.2522 13.7844L12.7993 13.1865C11.5563 14.1282 10.0099 14.6427 8.41398 14.6423L8.41378 15.3923ZM0.82306 9.66319C1.63854 13.0375 4.80065 15.4042 8.41512 15.3923L8.41265 14.6423C5.12003 14.6531 2.28015 12.4997 1.55207 9.48701L0.82306 9.66319ZM5.03771 1.3486C1.77019 2.83561 0.00652659 6.2845 0.82306 9.66319L1.55207 9.48701C0.825055 6.47872 2.38823 3.37836 5.34837 2.03123L5.03771 1.3486ZM14.4705 3.42112C12.2165 0.717584 8.30035 -0.136201 5.03771 1.3486L5.34837 2.03123C8.31337 0.681885 11.8636 1.46544 13.8944 3.90138L14.4705 3.42112ZM14.4194 12.6574C16.7085 9.97027 16.7299 6.13121 14.4705 3.42112L13.8944 3.90138C15.9198 6.33076 15.9009 9.76166 13.8485 12.171L14.4194 12.6574ZM15.3947 12.7912L14.3393 12.1004L13.9285 12.7279L14.9839 13.4188L15.3947 12.7912ZM15.9043 13.1864C15.7471 13.0338 15.5725 12.899 15.3839 12.7845L14.9946 13.4255C15.1357 13.5112 15.2655 13.6115 15.3818 13.7245L15.9043 13.1864ZM8.41405 12.6398C5.68801 12.6398 3.51227 10.548 3.51227 8.00874H2.76227C2.76227 10.999 5.31151 13.3898 8.41405 13.3898V12.6398ZM11.8872 11.2765C10.9693 12.1473 9.72027 12.6398 8.41405 12.6398V13.3898C9.90681 13.3898 11.3421 12.8274 12.4034 11.8206L11.8872 11.2765ZM13.3158 8.00874C13.3158 9.23041 12.8045 10.4063 11.8872 11.2765L12.4034 11.8206C13.4653 10.8132 14.0658 9.44245 14.0658 8.00874H13.3158ZM8.41405 3.37771C11.1401 3.37771 13.3158 5.46946 13.3158 8.00874H14.0658C14.0658 5.01851 11.5166 2.62771 8.41405 2.62771V3.37771ZM3.51227 8.00874C3.51227 5.46946 5.68801 3.37771 8.41405 3.37771V2.62771C5.31151 2.62771 2.76227 5.01851 2.76227 8.00874H3.51227Z"
            fill="currentColor" />
    </symbol>
    <symbol id="icon-is-favorite" viewBox="0 0 24 22" xmlns="http://www.w3.org/2000/svg">
        <path
            d="M22.7848 5.70581C22.1692 3.13551 20.2581 1.33064 17.8519 1.05188C15.4673 0.773112 13.6809 1.88344 12.3336 3.9718C12.2217 4.14662 12.1227 4.32616 11.9979 4.53878C11.9462 4.45846 11.9075 4.39231 11.8688 4.32144C11.0897 2.95597 10.0824 1.88344 8.67488 1.34481C5.54126 0.154162 1.71033 2.10078 1.08188 6.35311C0.776268 8.44147 1.34445 10.2605 2.48082 11.9048C3.30727 13.1001 4.28007 14.1443 5.33465 15.094C7.39216 16.9461 9.4755 18.7699 11.5459 20.6031C11.6923 20.7307 11.8343 20.8583 11.9936 21C12.0495 20.9528 12.1055 20.9102 12.1615 20.863C14.1975 19.0676 16.2464 17.2863 18.2694 15.472C19.4575 14.4089 20.5809 13.2655 21.515 11.9142C22.2381 10.8653 22.7676 9.72189 22.9397 8.40367C22.957 8.26665 22.9828 8.12491 23 7.98789C23 7.6288 23 7.26499 23 6.90591C22.9268 6.5043 22.8795 6.09797 22.7848 5.70581Z"
            stroke="black" fill="currentColor" stroke-width="1.5" />
    </symbol>

    <symbol id="star-raiting" viewBox="0 0 18 18" fill="currentColor" xmlns="http://www.w3.org/2000/svg">
        <path
            d="M9 0.5C9.18332 0.5 9.34783 0.608258 9.4209 0.77832L11.4746 5.58496L11.5918 5.85938L11.8887 5.88672L17.085 6.3584C17.2662 6.3748 17.4207 6.49745 17.4775 6.67188C17.5345 6.84758 17.4812 7.03753 17.3438 7.1582L13.416 10.6025L13.1924 10.7988L13.2588 11.0898L14.416 16.1895C14.4518 16.3477 14.4029 16.5087 14.291 16.6182L14.2393 16.6621C14.1093 16.7562 13.9419 16.7746 13.7969 16.7148L13.7363 16.6846L9.25684 14.0059L9 13.8525L8.74316 14.0059L4.2627 16.6846C4.19034 16.7279 4.10987 16.749 4.0293 16.749C3.93501 16.749 3.84138 16.7209 3.76172 16.6631L3.76074 16.6621L3.70898 16.6182C3.59712 16.5087 3.54824 16.3477 3.58398 16.1895L3.58301 16.1885L4.74121 11.0898L4.80762 10.7988L4.58398 10.6025L0.65625 7.1582C0.518906 7.03775 0.465936 6.8475 0.522461 6.67285C0.579966 6.49797 0.734493 6.37515 0.916016 6.3584L0.915039 6.35742L6.1123 5.88672L6.40918 5.85938L6.52637 5.58496L8.58008 0.777344C8.65213 0.608421 8.81634 0.500009 9 0.5Z"
            fill="currentColor" stroke="black" />
    </symbol>

    <svg id="half-star-raiting" viewBox="0 0 18 18" xmlns="http://www.w3.org/2000/svg">
        <path fill="url(#half-grad)"
            d="M9 0.5C9.18332 0.5 9.34783 0.608258 9.4209 0.77832L11.4746 5.58496L11.5918 5.85938L11.8887 5.88672L17.085 6.3584C17.2662 6.3748 17.4207 6.49745 17.4775 6.67188C17.5345 6.84758 17.4812 7.03753 17.3438 7.1582L13.416 10.6025L13.1924 10.7988L13.2588 11.0898L14.416 16.1895C14.4518 16.3477 14.4029 16.5087 14.291 16.6182L14.2393 16.6621C14.1093 16.7562 13.9419 16.7746 13.7969 16.7148L13.7363 16.6846L9.25684 14.0059L9 13.8525L8.74316 14.0059L4.2627 16.6846C4.19034 16.7279 4.10987 16.749 4.0293 16.749C3.93501 16.749 3.84138 16.7209 3.76172 16.6631L3.76074 16.6621L3.70898 16.6182C3.59712 16.5087 3.54824 16.3477 3.58398 16.1895L3.58301 16.1885L4.74121 11.0898L4.80762 10.7988L4.58398 10.6025L0.65625 7.1582C0.518906 7.03775 0.465936 6.8475 0.522461 6.67285C0.579966 6.49797 0.734493 6.37515 0.916016 6.3584L0.915039 6.35742L6.1123 5.88672L6.40918 5.85938L6.52637 5.58496L8.58008 0.777344C8.65213 0.608421 8.81634 0.500009 9 0.5Z" stroke="black" />
        <defs>
            <linearGradient id="half-grad" x1="0%" y1="0%" x2="100%" y2="0%">
                <stop offset="50%" stop-color="black" />
                <stop offset="50%" stop-color="white" />
            </linearGradient>
        </defs>
    </svg>

</svg>